<svg width="32" height="32" viewBox="0 0 32 32" fill="none" xmlns="http://www.w3.org/2000/svg">
<path d="M18.6667 12.8666V11.2666C19.4 10.9555 20.15 10.7221 20.9167 10.5666C21.6833 10.411 22.4889 10.3333 23.3333 10.3333C23.9111 10.3333 24.4778 10.3777 25.0333 10.4666C25.5889 10.5555 26.1333 10.6666 26.6667 10.7999V12.2666C26.1333 12.0666 25.5945 11.9166 25.05 11.8166C24.5056 11.7166 23.9333 11.6666 23.3333 11.6666C22.4889 11.6666 21.6778 11.7721 20.9 11.9833C20.1222 12.1944 19.3778 12.4888 18.6667 12.8666ZM18.6667 20.1999V18.5666C19.4 18.2555 20.15 18.0277 20.9167 17.8833C21.6833 17.7388 22.4889 17.6666 23.3333 17.6666C23.9111 17.6666 24.4778 17.711 25.0333 17.7999C25.5889 17.8888 26.1333 17.9999 26.6667 18.1333V19.5999C26.1333 19.3999 25.5945 19.2499 25.05 19.1499C24.5056 19.0499 23.9333 18.9999 23.3333 18.9999C22.4889 18.9999 21.6778 19.0999 20.9 19.2999C20.1222 19.4999 19.3778 19.7999 18.6667 20.1999ZM18.6667 16.5333V14.9333C19.4 14.6221 20.15 14.3888 20.9167 14.2333C21.6833 14.0777 22.4889 13.9999 23.3333 13.9999C23.9111 13.9999 24.4778 14.0444 25.0333 14.1333C25.5889 14.2221 26.1333 14.3333 26.6667 14.4666V15.9333C26.1333 15.7333 25.5945 15.5833 25.05 15.4833C24.5056 15.3833 23.9333 15.3333 23.3333 15.3333C22.4889 15.3333 21.6778 15.4388 20.9 15.6499C20.1222 15.861 19.3778 16.1555 18.6667 16.5333ZM8.26668 21.9999C9.46668 21.9999 10.6278 22.1388 11.75 22.4166C12.8722 22.6944 13.9778 23.111 15.0667 23.6666V9.43325C14.0667 8.76659 12.9833 8.24992 11.8167 7.88325C10.65 7.51659 9.46668 7.33325 8.26668 7.33325C7.42223 7.33325 6.59446 7.43881 5.78334 7.64992C4.97223 7.86103 4.15557 8.12214 3.33334 8.43325V22.8999C4.02223 22.5888 4.80557 22.361 5.68334 22.2166C6.56112 22.0721 7.42223 21.9999 8.26668 21.9999ZM17.0667 23.6666C18.1778 23.111 19.2667 22.6944 20.3333 22.4166C21.4 22.1388 22.5333 21.9999 23.7333 21.9999C24.5778 21.9999 25.45 22.0666 26.35 22.1999C27.25 22.3333 28.0222 22.511 28.6667 22.7333V8.43325C27.9111 8.05547 27.1111 7.7777 26.2667 7.59992C25.4222 7.42214 24.5778 7.33325 23.7333 7.33325C22.5333 7.33325 21.3722 7.51659 20.25 7.88325C19.1278 8.24992 18.0667 8.76659 17.0667 9.43325V23.6666ZM16.0667 26.6666C14.9333 25.8221 13.7 25.1721 12.3667 24.7166C11.0333 24.261 9.66668 24.0333 8.26668 24.0333C7.44446 24.0333 6.64446 24.1333 5.86668 24.3333C5.0889 24.5333 4.31112 24.7777 3.53334 25.0666C3.02223 25.311 2.52779 25.2777 2.05001 24.9666C1.57223 24.6555 1.33334 24.211 1.33334 23.6333V8.19992C1.33334 7.86659 1.41112 7.56103 1.56668 7.28325C1.72223 7.00547 1.95557 6.78881 2.26668 6.63325C3.20001 6.18881 4.17223 5.86103 5.18334 5.64992C6.19446 5.43881 7.22223 5.33325 8.26668 5.33325C9.66668 5.33325 11.0278 5.52214 12.35 5.89992C13.6722 6.2777 14.9111 6.85547 16.0667 7.63325C17.2 6.85547 18.4167 6.2777 19.7167 5.89992C21.0167 5.52214 22.3556 5.33325 23.7333 5.33325C24.7778 5.33325 25.8 5.43881 26.8 5.64992C27.8 5.86103 28.7667 6.18881 29.7 6.63325C30.0111 6.78881 30.25 7.00547 30.4167 7.28325C30.5833 7.56103 30.6667 7.86659 30.6667 8.19992V23.6333C30.6667 24.2555 30.4167 24.7277 29.9167 25.0499C29.4167 25.3721 28.9222 25.3777 28.4333 25.0666C27.6778 24.7555 26.9111 24.5055 26.1333 24.3166C25.3556 24.1277 24.5556 24.0333 23.7333 24.0333C22.3333 24.0333 20.9889 24.2666 19.7 24.7333C18.4111 25.1999 17.2 25.8444 16.0667 26.6666Z" fill="url(#paint0_linear_8_226)"/>
<defs>
<linearGradient id="paint0_linear_8_226" x1="16" y1="5.33325" x2="16" y2="26.6666" gradientUnits="userSpaceOnUse">
<stop stop-color="#682BC9"/>
<stop offset="1" stop-color="#320D5F"/>
</linearGradient>
</defs>
</svg>
