<svg width="129" height="108" viewBox="0 0 129 108" fill="none" xmlns="http://www.w3.org/2000/svg">
<path d="M37.6953 77.7712C37.547 77.0804 37.7742 76.3626 38.293 75.8829L102.422 16.5923C103.326 15.7568 104.762 15.9279 105.444 16.9522L118.415 36.4272C118.961 37.2473 118.829 38.343 118.103 39.0093L46.5533 104.682C45.4141 105.727 43.57 105.14 43.2455 103.628L37.6953 77.7712Z" fill="#9259EC"/>
<path d="M17.6953 62.7712C17.547 62.0804 17.7742 61.3626 18.293 60.8829L82.422 1.59225C83.3256 0.756809 84.7621 0.927863 85.4443 1.95212L98.4149 21.4272C98.9611 22.2473 98.8287 23.343 98.1028 24.0093L26.5533 89.6818C25.4141 90.7274 23.57 90.14 23.2455 88.6281L17.6953 62.7712Z" fill="#B88BFF"/>
</svg>
