<svg width="32" height="32" viewBox="0 0 32 32" fill="none" xmlns="http://www.w3.org/2000/svg">
<path d="M15.8333 29.3334L21.8667 13.3334H24.6L30.8 29.3334H27.9L26.5333 25.1334H20.1333L18.5667 29.3334H15.8333ZM20.8667 22.8001H25.6L23.2667 16.3334H23.2L20.8667 22.8001ZM5.33334 25.3334L3.50001 23.5001L10.3 16.7001C9.45556 15.7223 8.70556 14.739 8.05001 13.7501C7.39445 12.7612 6.82223 11.7334 6.33334 10.6667H9.23334C9.61112 11.4001 10.0278 12.0945 10.4833 12.7501C10.9389 13.4056 11.4556 14.0779 12.0333 14.7667C13.0333 13.7223 13.8667 12.639 14.5333 11.5167C15.2 10.3945 15.7667 9.2223 16.2333 8.00008H1.33334V5.33341H10.6667V2.66675H13.3333V5.33341H22.6667V8.00008H18.9C18.4111 9.53341 17.7611 11.039 16.95 12.5167C16.1389 13.9945 15.1445 15.4001 13.9667 16.7334L17.2333 20.0334L16.2333 22.7334L12 18.6667L5.33334 25.3334Z" fill="url(#paint0_linear_8_228)"/>
<defs>
<linearGradient id="paint0_linear_8_228" x1="16.0667" y1="2.66675" x2="16.0667" y2="29.3334" gradientUnits="userSpaceOnUse">
<stop stop-color="#682BC9"/>
<stop offset="1" stop-color="#320D5F"/>
</linearGradient>
</defs>
</svg>
