<svg width="200" height="64" viewBox="0 0 200 64" fill="none" xmlns="http://www.w3.org/2000/svg">
<path d="M20 53.56C19.44 53.56 18.14 53.26 16.1 52.66L14 52.12V49.3C17.8 49.3 20 49.24 20.6 49.12C21.88 48.88 22.52 46.5 22.52 41.98V13.48L18.62 12.28V10H32V12.28L28.1 13.48V43.9C28.1 45.06 27.56 46.38 26.48 47.86C25.44 49.38 24.26 50.7 22.94 51.82C21.62 52.98 20.64 53.56 20 53.56Z" fill="url(#paint0_linear_103_3)"/>
<path d="M49.0869 46.72C44.9269 46.72 41.8069 45.66 39.7269 43.54C37.6469 41.42 36.6069 38.12 36.6069 33.64C36.6069 31.8 36.7269 30.06 36.9669 28.42C37.2469 26.74 37.6069 25.5 38.0469 24.7C38.4469 24.1 39.2669 23.3 40.5069 22.3C41.7869 21.3 43.0669 20.42 44.3469 19.66C45.6269 18.9 46.5069 18.52 46.9869 18.52C51.0269 18.52 54.0669 19.62 56.1069 21.82C58.1869 23.98 59.2269 27.12 59.2269 31.24C59.2269 33.16 59.0869 34.96 58.8069 36.64C58.5669 38.32 58.2669 39.7 57.9069 40.78C57.2669 41.66 55.8069 42.88 53.5269 44.44C51.2869 45.96 49.8069 46.72 49.0869 46.72ZM49.3869 43.3C49.6669 43.22 50.6869 42.72 52.4469 41.8C53.1269 38.8 53.4669 35.54 53.4669 32.02C53.4669 28.9 52.8869 26.46 51.7269 24.7C50.6069 22.94 48.9269 22.06 46.6869 22.06C45.6869 22.06 44.8869 22.22 44.2869 22.54C43.7269 22.86 43.2669 23.92 42.9069 25.72C42.5469 27.52 42.3669 29.88 42.3669 32.8C42.3669 36.72 43.0269 39.46 44.3469 41.02C45.7069 42.54 47.3869 43.3 49.3869 43.3Z" fill="url(#paint1_linear_103_3)"/>
<path d="M67.6944 46.72C67.4944 46.72 67.0944 46.44 66.4944 45.88C65.9344 45.32 65.6544 44.94 65.6544 44.74V22.84L63.5544 21.94V19.72C66.8344 19.12 68.6544 18.82 69.0144 18.82C69.2144 18.82 69.5744 19.1 70.0944 19.66C70.6544 20.18 70.9344 20.54 70.9344 20.74V23.02C72.1344 22.14 73.4144 21.22 74.7744 20.26C76.1744 19.3 76.9544 18.82 77.1144 18.82C79.9944 18.82 82.1544 19.58 83.5944 21.1C85.0344 22.58 85.7544 25.18 85.7544 28.9V42.64L87.8544 43.54V45.76C84.5344 46.4 82.7144 46.72 82.3944 46.72C82.1944 46.72 81.7944 46.44 81.1944 45.88C80.5944 45.32 80.2944 44.94 80.2944 44.74V28.9C80.2944 26.42 79.9344 24.86 79.2144 24.22C78.4944 23.58 77.6944 23.26 76.8144 23.26C76.3744 23.26 75.3744 23.62 73.8144 24.34C72.2944 25.02 71.3944 25.42 71.1144 25.54V42.64L73.1544 43.54V45.76C69.8744 46.4 68.0544 46.72 67.6944 46.72Z" fill="url(#paint2_linear_103_3)"/>
<path d="M101.572 46.72C99.9323 46.72 98.3923 46.26 96.9523 45.34C95.5523 44.38 94.4123 42.92 93.5323 40.96C92.6523 39 92.2123 36.56 92.2123 33.64C92.2123 31.76 92.3323 30.02 92.5723 28.42C92.8523 26.78 93.2123 25.54 93.6523 24.7C94.2923 23.78 95.7123 22.56 97.9123 21.04C100.152 19.52 101.632 18.76 102.352 18.76C103.152 18.76 106.652 19.22 112.852 20.14V42.7L114.892 43.54V45.76C111.732 46.4 109.972 46.72 109.612 46.72C109.452 46.72 109.072 46.44 108.472 45.88C107.872 45.32 107.572 44.94 107.572 44.74V42.4C107.332 42.6 106.332 43.38 104.572 44.74C102.812 46.06 101.812 46.72 101.572 46.72ZM101.932 42.28C102.372 42.28 104.192 41.48 107.392 39.88V23.38C106.392 23.06 105.092 22.78 103.492 22.54C101.892 22.26 100.812 22.16 100.252 22.24C99.4923 22.36 98.9123 23.22 98.5123 24.82C98.1523 26.42 97.9723 29.22 97.9723 33.22C97.9723 35.26 98.1923 36.96 98.6323 38.32C99.1123 39.68 99.6523 40.68 100.252 41.32C100.892 41.96 101.452 42.28 101.932 42.28Z" fill="url(#paint3_linear_103_3)"/>
<path d="M125.407 46.72C124.967 46.72 124.387 46.44 123.667 45.88C122.947 45.28 122.307 44.6 121.747 43.84C121.227 43.08 120.967 42.48 120.967 42.04V22.48H117.127V20.68L120.967 18.76L124.327 14.68C124.687 14.68 125.387 14.96 126.427 15.52V19.3H132.247V22.78H126.427V39.4C126.427 40.64 126.527 41.48 126.727 41.92C126.927 42.36 127.307 42.58 127.867 42.58L132.787 42.7V45.58C131.627 45.82 130.207 46.06 128.527 46.3C126.847 46.58 125.807 46.72 125.407 46.72Z" fill="url(#paint4_linear_103_3)"/>
<path d="M145.283 46.72C143.643 46.72 142.103 46.26 140.663 45.34C139.263 44.38 138.123 42.92 137.243 40.96C136.363 39 135.923 36.56 135.923 33.64C135.923 31.76 136.043 30.02 136.283 28.42C136.563 26.78 136.923 25.54 137.363 24.7C138.003 23.78 139.423 22.56 141.623 21.04C143.863 19.52 145.343 18.76 146.063 18.76C146.863 18.76 150.363 19.22 156.563 20.14V42.7L158.603 43.54V45.76C155.443 46.4 153.683 46.72 153.323 46.72C153.163 46.72 152.783 46.44 152.183 45.88C151.583 45.32 151.283 44.94 151.283 44.74V42.4C151.043 42.6 150.043 43.38 148.283 44.74C146.523 46.06 145.523 46.72 145.283 46.72ZM145.643 42.28C146.083 42.28 147.903 41.48 151.103 39.88V23.38C150.103 23.06 148.803 22.78 147.203 22.54C145.603 22.26 144.523 22.16 143.963 22.24C143.203 22.36 142.623 23.22 142.223 24.82C141.863 26.42 141.683 29.22 141.683 33.22C141.683 35.26 141.903 36.96 142.343 38.32C142.823 39.68 143.363 40.68 143.963 41.32C144.603 41.96 145.163 42.28 145.643 42.28Z" fill="url(#paint5_linear_103_3)"/>
<path d="M166.718 46.72C166.518 46.72 166.118 46.44 165.518 45.88C164.958 45.32 164.678 44.94 164.678 44.74V22.84L162.578 21.94V19.72C165.858 19.12 167.678 18.82 168.038 18.82C168.238 18.82 168.598 19.1 169.118 19.66C169.678 20.18 169.958 20.54 169.958 20.74V23.02C171.158 22.14 172.438 21.22 173.798 20.26C175.198 19.3 175.978 18.82 176.138 18.82C179.018 18.82 181.178 19.58 182.618 21.1C184.058 22.58 184.778 25.18 184.778 28.9V42.64L186.878 43.54V45.76C183.558 46.4 181.738 46.72 181.418 46.72C181.218 46.72 180.818 46.44 180.218 45.88C179.618 45.32 179.318 44.94 179.318 44.74V28.9C179.318 26.42 178.958 24.86 178.238 24.22C177.518 23.58 176.718 23.26 175.838 23.26C175.398 23.26 174.398 23.62 172.838 24.34C171.318 25.02 170.418 25.42 170.138 25.54V42.64L172.178 43.54V45.76C168.898 46.4 167.078 46.72 166.718 46.72Z" fill="url(#paint6_linear_103_3)"/>
<defs>
<linearGradient id="paint0_linear_103_3" x1="102.28" y1="49.68" x2="102.28" y2="18.68" gradientUnits="userSpaceOnUse">
<stop offset="0.130208" stop-color="#682BC9"/>
<stop offset="1" stop-color="#320D5F"/>
</linearGradient>
<linearGradient id="paint1_linear_103_3" x1="102.28" y1="49.68" x2="102.28" y2="18.68" gradientUnits="userSpaceOnUse">
<stop offset="0.130208" stop-color="#682BC9"/>
<stop offset="1" stop-color="#320D5F"/>
</linearGradient>
<linearGradient id="paint2_linear_103_3" x1="102.28" y1="49.68" x2="102.28" y2="18.68" gradientUnits="userSpaceOnUse">
<stop offset="0.130208" stop-color="#682BC9"/>
<stop offset="1" stop-color="#320D5F"/>
</linearGradient>
<linearGradient id="paint3_linear_103_3" x1="102.28" y1="49.68" x2="102.28" y2="18.68" gradientUnits="userSpaceOnUse">
<stop offset="0.130208" stop-color="#682BC9"/>
<stop offset="1" stop-color="#320D5F"/>
</linearGradient>
<linearGradient id="paint4_linear_103_3" x1="102.28" y1="49.68" x2="102.28" y2="18.68" gradientUnits="userSpaceOnUse">
<stop offset="0.130208" stop-color="#682BC9"/>
<stop offset="1" stop-color="#320D5F"/>
</linearGradient>
<linearGradient id="paint5_linear_103_3" x1="102.28" y1="49.68" x2="102.28" y2="18.68" gradientUnits="userSpaceOnUse">
<stop offset="0.130208" stop-color="#682BC9"/>
<stop offset="1" stop-color="#320D5F"/>
</linearGradient>
<linearGradient id="paint6_linear_103_3" x1="102.28" y1="49.68" x2="102.28" y2="18.68" gradientUnits="userSpaceOnUse">
<stop offset="0.130208" stop-color="#682BC9"/>
<stop offset="1" stop-color="#320D5F"/>
</linearGradient>
</defs>
</svg>
